<svg xmlns="http://www.w3.org/2000/svg" xmlns:xlink="http://www.w3.org/1999/xlink" width="1366" zoomAndPan="magnify" viewBox="0 0 1024.5 576" height="768" preserveAspectRatio="xMidYMid meet" version="1.0"><defs><clipPath id="c340f6f870"><path d="M 33.230469 0.140625 L 990.515625 0.140625 L 990.515625 575.859375 L 33.230469 575.859375 Z M 33.230469 0.140625 " clip-rule="nonzero"/></clipPath></defs><path fill="#c0e6ff" d="M 78.757812 572.785156 C 55.140625 572.785156 35.925781 553.5625 35.925781 529.941406 L 35.925781 513.507812 C 35.925781 512.015625 37.132812 510.8125 38.621094 510.8125 L 96.433594 510.8125 C 97.460938 510.8125 98.398438 511.394531 98.851562 512.316406 C 102.113281 518.929688 108.699219 523.042969 116.042969 523.042969 C 126.621094 523.042969 135.222656 514.4375 135.222656 503.855469 C 135.222656 493.277344 126.621094 484.671875 116.042969 484.671875 C 108.699219 484.671875 102.113281 488.777344 98.851562 495.398438 C 98.398438 496.320312 97.460938 496.902344 96.433594 496.902344 L 38.621094 496.902344 C 37.132812 496.902344 35.925781 495.695312 35.925781 494.207031 L 35.925781 427.164062 C 35.925781 425.675781 37.132812 424.46875 38.621094 424.46875 L 96.433594 424.46875 C 97.460938 424.46875 98.398438 425.050781 98.851562 425.972656 C 102.113281 432.589844 108.699219 436.699219 116.042969 436.699219 C 126.621094 436.699219 135.222656 428.09375 135.222656 417.515625 C 135.222656 406.933594 126.621094 398.332031 116.042969 398.332031 C 108.699219 398.332031 102.113281 402.441406 98.851562 409.054688 C 98.398438 409.976562 97.460938 410.558594 96.433594 410.558594 L 38.621094 410.558594 C 37.132812 410.558594 35.925781 409.355469 35.925781 407.863281 L 35.925781 340.824219 C 35.925781 339.335938 37.132812 338.128906 38.621094 338.128906 L 96.433594 338.128906 C 97.460938 338.128906 98.398438 338.710938 98.851562 339.632812 C 102.113281 346.25 108.699219 350.359375 116.042969 350.359375 C 126.621094 350.359375 135.222656 341.757812 135.222656 331.175781 C 135.222656 320.59375 126.621094 311.988281 116.042969 311.988281 C 108.699219 311.988281 102.113281 316.097656 98.851562 322.714844 C 98.398438 323.636719 97.460938 324.21875 96.433594 324.21875 L 38.621094 324.21875 C 37.132812 324.21875 35.925781 323.015625 35.925781 321.523438 L 35.925781 254.488281 C 35.925781 252.996094 37.132812 251.789062 38.621094 251.789062 L 96.433594 251.789062 C 97.460938 251.789062 98.398438 252.375 98.851562 253.296875 C 102.113281 259.910156 108.699219 264.019531 116.042969 264.019531 C 126.621094 264.019531 135.222656 255.417969 135.222656 244.835938 C 135.222656 234.253906 126.621094 225.648438 116.042969 225.648438 C 108.699219 225.648438 102.113281 229.757812 98.851562 236.375 C 98.398438 237.296875 97.460938 237.878906 96.433594 237.878906 L 38.621094 237.878906 C 37.132812 237.878906 35.925781 236.675781 35.925781 235.183594 L 35.925781 168.144531 C 35.925781 166.652344 37.132812 165.449219 38.621094 165.449219 L 96.433594 165.449219 C 97.460938 165.449219 98.398438 166.03125 98.851562 166.953125 C 102.113281 173.570312 108.699219 177.679688 116.042969 177.679688 C 126.621094 177.679688 135.222656 169.074219 135.222656 158.492188 C 135.222656 147.914062 126.621094 139.308594 116.042969 139.308594 C 108.699219 139.308594 102.113281 143.417969 98.851562 150.035156 C 98.398438 150.957031 97.460938 151.539062 96.433594 151.539062 L 38.621094 151.539062 C 37.132812 151.539062 35.925781 150.332031 35.925781 148.84375 L 35.925781 81.804688 C 35.925781 80.316406 37.132812 79.109375 38.621094 79.109375 L 96.433594 79.109375 C 97.460938 79.109375 98.398438 79.691406 98.851562 80.613281 C 102.113281 87.230469 108.699219 91.339844 116.042969 91.339844 C 126.621094 91.339844 135.222656 82.734375 135.222656 72.15625 C 135.222656 61.574219 126.621094 52.96875 116.042969 52.96875 C 108.699219 52.96875 102.113281 57.078125 98.851562 63.695312 C 98.398438 64.617188 97.460938 65.199219 96.433594 65.199219 L 38.621094 65.199219 C 37.132812 65.199219 35.925781 63.996094 35.925781 62.503906 L 35.925781 46.632812 C 35.925781 22.664062 55.394531 3.195312 79.320312 3.195312 L 944.328125 3.195312 C 968.304688 3.195312 987.808594 22.703125 987.808594 46.683594 L 987.808594 529.292969 C 987.808594 553.273438 968.304688 572.78125 944.328125 572.78125 L 165.710938 572.78125 C 165.710938 572.78125 78.757812 572.78125 78.757812 572.78125 Z M 78.757812 572.785156 " fill-opacity="1" fill-rule="nonzero"/><g clip-path="url(#c340f6f870)"><path fill="#000000" d="M 944.328125 5.890625 C 966.855469 5.890625 985.113281 24.152344 985.113281 46.683594 L 985.113281 529.292969 C 985.113281 551.820312 966.855469 570.089844 944.328125 570.089844 L 165.710938 570.089844 C 165.710938 570.089844 78.757812 570.089844 78.757812 570.089844 C 56.59375 570.089844 38.625 552.117188 38.625 529.941406 L 38.625 513.511719 L 96.4375 513.511719 C 100.003906 520.746094 107.433594 525.738281 116.046875 525.738281 C 128.128906 525.738281 137.921875 515.941406 137.921875 503.855469 C 137.921875 491.769531 128.128906 481.976562 116.046875 481.976562 C 107.433594 481.976562 100.003906 486.964844 96.4375 494.203125 L 38.621094 494.203125 L 38.621094 427.164062 L 96.433594 427.164062 C 100 434.402344 107.429688 439.390625 116.042969 439.390625 C 128.125 439.390625 137.917969 429.59375 137.917969 417.507812 C 137.917969 405.425781 128.125 395.628906 116.042969 395.628906 C 107.429688 395.628906 100 400.617188 96.433594 407.855469 L 38.621094 407.855469 L 38.621094 340.816406 L 96.433594 340.816406 C 100 348.054688 107.429688 353.042969 116.042969 353.042969 C 128.125 353.042969 137.917969 343.246094 137.917969 331.160156 C 137.917969 319.078125 128.125 309.28125 116.042969 309.28125 C 107.429688 309.28125 100 314.269531 96.433594 321.507812 L 38.621094 321.507812 L 38.621094 254.46875 L 96.433594 254.46875 C 100 261.707031 107.429688 266.699219 116.042969 266.699219 C 128.125 266.699219 137.917969 256.902344 137.917969 244.816406 C 137.917969 232.730469 128.125 222.933594 116.042969 222.933594 C 107.429688 222.933594 100 227.925781 96.433594 235.164062 L 38.621094 235.164062 L 38.621094 168.125 L 96.433594 168.125 C 100 175.363281 107.429688 180.351562 116.042969 180.351562 C 128.125 180.351562 137.917969 170.558594 137.917969 158.472656 C 137.917969 146.386719 128.125 136.589844 116.042969 136.589844 C 107.429688 136.589844 100 141.582031 96.433594 148.820312 L 38.621094 148.820312 L 38.621094 81.777344 L 96.433594 81.777344 C 100 89.015625 107.429688 94.007812 116.042969 94.007812 C 128.125 94.007812 137.917969 84.210938 137.917969 72.125 C 137.917969 60.039062 128.125 50.242188 116.042969 50.242188 C 107.429688 50.242188 100 55.234375 96.433594 62.472656 L 38.621094 62.472656 L 38.621094 46.601562 C 38.621094 24.117188 56.84375 5.894531 79.320312 5.894531 L 944.332031 5.894531 M 944.332031 0.5 L 79.320312 0.5 C 53.90625 0.5 33.230469 21.179688 33.230469 46.597656 L 33.230469 62.46875 C 33.230469 65.445312 35.644531 67.859375 38.621094 67.859375 L 96.433594 67.859375 C 98.484375 67.859375 100.359375 66.695312 101.269531 64.855469 C 104.074219 59.167969 109.734375 55.632812 116.042969 55.632812 C 125.132812 55.632812 132.527344 63.027344 132.527344 72.121094 C 132.527344 81.214844 125.132812 88.613281 116.042969 88.613281 C 109.734375 88.613281 104.070312 85.078125 101.269531 79.390625 C 100.359375 77.546875 98.488281 76.382812 96.433594 76.382812 L 38.621094 76.382812 C 35.644531 76.382812 33.230469 78.800781 33.230469 81.777344 L 33.230469 148.816406 C 33.230469 151.792969 35.644531 154.207031 38.621094 154.207031 L 96.433594 154.207031 C 98.484375 154.207031 100.359375 153.042969 101.269531 151.203125 C 104.074219 145.515625 109.734375 141.980469 116.042969 141.980469 C 125.132812 141.980469 132.527344 149.375 132.527344 158.46875 C 132.527344 167.5625 125.132812 174.960938 116.042969 174.960938 C 109.734375 174.960938 104.070312 171.425781 101.269531 165.738281 C 100.359375 163.894531 98.488281 162.730469 96.433594 162.730469 L 38.621094 162.730469 C 35.644531 162.730469 33.230469 165.148438 33.230469 168.121094 L 33.230469 235.160156 C 33.230469 238.140625 35.644531 240.550781 38.621094 240.550781 L 96.433594 240.550781 C 98.484375 240.550781 100.359375 239.386719 101.269531 237.546875 C 104.074219 231.859375 109.734375 228.324219 116.042969 228.324219 C 125.132812 228.324219 132.527344 235.722656 132.527344 244.8125 C 132.527344 253.90625 125.132812 261.304688 116.042969 261.304688 C 109.734375 261.304688 104.070312 257.769531 101.269531 252.082031 C 100.359375 250.242188 98.488281 249.074219 96.433594 249.074219 L 38.621094 249.074219 C 35.644531 249.074219 33.230469 251.488281 33.230469 254.46875 L 33.230469 321.503906 C 33.230469 324.484375 35.644531 326.898438 38.621094 326.898438 L 96.433594 326.898438 C 98.484375 326.898438 100.359375 325.730469 101.269531 323.890625 C 104.074219 318.203125 109.734375 314.667969 116.042969 314.667969 C 125.132812 314.667969 132.527344 322.066406 132.527344 331.160156 C 132.527344 340.25 125.132812 347.648438 116.042969 347.648438 C 109.734375 347.648438 104.070312 344.113281 101.269531 338.425781 C 100.359375 336.585938 98.488281 335.421875 96.433594 335.421875 L 38.621094 335.421875 C 35.644531 335.421875 33.230469 337.835938 33.230469 340.8125 L 33.230469 407.851562 C 33.230469 410.828125 35.644531 413.246094 38.621094 413.246094 L 96.433594 413.246094 C 98.484375 413.246094 100.359375 412.078125 101.269531 410.238281 C 104.074219 404.550781 109.734375 401.015625 116.042969 401.015625 C 125.132812 401.015625 132.527344 408.414062 132.527344 417.507812 C 132.527344 426.597656 125.132812 433.996094 116.042969 433.996094 C 109.734375 433.996094 104.070312 430.460938 101.269531 424.773438 C 100.359375 422.933594 98.488281 421.769531 96.433594 421.769531 L 38.621094 421.769531 C 35.644531 421.769531 33.230469 424.183594 33.230469 427.160156 L 33.230469 494.199219 C 33.230469 497.175781 35.644531 499.589844 38.621094 499.589844 L 96.433594 499.589844 C 98.484375 499.589844 100.359375 498.425781 101.269531 496.585938 C 104.074219 490.898438 109.734375 487.363281 116.042969 487.363281 C 125.132812 487.363281 132.527344 494.761719 132.527344 503.855469 C 132.527344 512.945312 125.132812 520.34375 116.042969 520.34375 C 109.734375 520.34375 104.070312 516.808594 101.269531 511.121094 C 100.359375 509.28125 98.488281 508.117188 96.433594 508.117188 L 38.621094 508.117188 C 35.644531 508.117188 33.230469 510.527344 33.230469 513.507812 L 33.230469 529.941406 C 33.230469 555.046875 53.65625 575.476562 78.757812 575.476562 L 944.328125 575.476562 C 969.789062 575.476562 990.503906 554.757812 990.503906 529.289062 L 990.503906 46.683594 C 990.503906 21.21875 969.789062 0.5 944.328125 0.5 Z M 944.332031 0.5 " fill-opacity="1" fill-rule="nonzero"/></g><path fill="#fff3dc" d="M 189.355469 33.050781 L 933.925781 33.050781 C 946.117188 33.050781 956.007812 42.953125 956.007812 55.140625 L 956.007812 520.835938 C 956.007812 533.023438 946.117188 542.921875 933.929688 542.921875 L 189.351562 542.921875 C 177.167969 542.921875 167.273438 533.023438 167.273438 520.835938 L 167.273438 55.140625 C 167.273438 42.949219 177.167969 33.050781 189.355469 33.050781 Z M 189.355469 33.050781 " fill-opacity="1" fill-rule="nonzero"/><path fill="#000000" d="M 933.929688 35.75 C 944.636719 35.75 953.316406 44.429688 953.316406 55.140625 L 953.316406 520.835938 C 953.316406 531.542969 944.636719 540.226562 933.929688 540.226562 L 189.355469 540.226562 C 178.648438 540.226562 169.96875 531.542969 169.96875 520.835938 L 169.96875 55.140625 C 169.96875 44.429688 178.648438 35.75 189.355469 35.75 L 933.929688 35.75 M 933.929688 30.355469 L 189.355469 30.355469 C 175.691406 30.355469 164.578125 41.472656 164.578125 55.140625 L 164.578125 520.835938 C 164.578125 534.5 175.691406 545.617188 189.355469 545.617188 L 933.929688 545.617188 C 947.59375 545.617188 958.707031 534.5 958.707031 520.835938 L 958.707031 55.140625 C 958.707031 41.476562 947.59375 30.355469 933.929688 30.355469 Z M 933.929688 30.355469 " fill-opacity="1" fill-rule="nonzero"/></svg>